<svg xmlns="http://www.w3.org/2000/svg" viewBox="0 0 30 30" id="ruble">
  <path d="M10.73 23H8a2 2 0 0 1-2-2V9a2 2 0 0 1 2-2h2.73A4.39 4.39 0 0 1 15 11.5a4.59 4.59 0 0 1-1.59 3.5A4.59 4.59 0 0 1 15 18.5a4.39 4.39 0 0 1-4.27 4.5zM8 16v5h2.73A2.4 2.4 0 0 0 13 18.5a2.4 2.4 0 0 0-2.27-2.5zm0-2h2.73A2.4 2.4 0 0 0 13 11.5 2.4 2.4 0 0 0 10.73 9H8zm10 9a1 1 0 0 1-1-1v-8a1 1 0 0 1 2 0v8a1 1 0 0 1-1 1z"></path>
  <path d="M18 21a1 1 0 0 1-1-1v-1a6 6 0 0 1 6-6 1 1 0 0 1 0 2 4 4 0 0 0-4 4v1a1 1 0 0 1-1 1Z"></path>
</svg>
