<svg width="174" height="46" viewBox="0 0 174 46" fill="none" xmlns="http://www.w3.org/2000/svg">
<path d="M0.999727 8.98305C0.98407 8.74084 1.06172 8.50182 1.21673 8.31505C1.29859 8.2287 1.39819 8.1611 1.50867 8.11691C1.61915 8.07272 1.73789 8.05298 1.85673 8.05905H21.2317C21.3556 8.05192 21.4796 8.07104 21.5956 8.11515C21.7116 8.15927 21.8169 8.22739 21.9047 8.31505C22.0637 8.51205 22.1447 8.76205 22.1337 9.01605V13.969C22.1284 14.2067 22.0483 14.4366 21.9047 14.626C21.8251 14.7282 21.7229 14.8105 21.6061 14.8665C21.4894 14.9226 21.3612 14.9508 21.2317 14.949H8.55973V19.924H18.3337C18.5537 19.914 18.7697 19.976 18.9527 20.102C19.0385 20.1751 19.1051 20.2681 19.1466 20.3729C19.1881 20.4777 19.2032 20.591 19.1907 20.703V24.966C19.1896 25.1238 19.1425 25.2777 19.0554 25.4091C18.9682 25.5405 18.8446 25.6437 18.6997 25.706C18.5909 25.7524 18.4729 25.7733 18.3547 25.767H8.57973V30.9H21.7197C21.8407 30.8825 21.9642 30.8943 22.0797 30.9343C22.1952 30.9743 22.2995 31.0414 22.3837 31.13C22.4697 31.2195 22.534 31.3275 22.5714 31.4458C22.6089 31.5641 22.6186 31.6894 22.5997 31.812V36.843C22.5983 36.912 22.5832 36.9801 22.5554 37.0432C22.5276 37.1064 22.4876 37.1634 22.4377 37.211C22.4377 37.578 22.1227 37.767 21.6447 37.767H1.85773C1.62832 37.781 1.40246 37.7053 1.22773 37.556C1.14512 37.4714 1.08193 37.3697 1.04256 37.2582C1.00318 37.1466 0.988569 37.0278 0.999727 36.91V8.98305ZM24.5547 37.287L24.8697 36.675C24.9787 36.475 25.1097 36.263 25.2497 36.052L34.0467 22.584L29.6047 15.728L25.1517 8.88205C25.0836 8.7864 25.0221 8.68617 24.9677 8.58205C24.9227 8.4832 24.8934 8.37793 24.8807 8.27005C24.8807 8.15905 24.9787 8.11405 25.1087 8.11405C25.2413 8.12084 25.373 8.08998 25.4887 8.02505H32.2877C32.5297 8.02605 32.7667 8.09905 32.9687 8.23505C33.1717 8.37205 33.3307 8.56505 33.4277 8.79305L38.2167 16.162L43.0607 8.80505C43.1537 8.58505 43.3047 8.39705 43.4957 8.26205C43.6866 8.12676 43.9121 8.04871 44.1457 8.03705H51.0527C51.1637 8.04605 51.2727 8.06805 51.3787 8.10305C51.417 8.11795 51.4499 8.14406 51.4731 8.17796C51.4963 8.21186 51.5087 8.25197 51.5087 8.29305C51.4999 8.48417 51.423 8.66582 51.2917 8.80505L42.3547 22.584L51.5307 36.608C51.6457 36.768 51.7437 36.94 51.8247 37.12C51.8925 37.2386 51.9261 37.3736 51.9217 37.51C51.9217 37.71 51.8017 37.81 51.5637 37.81H44.5697C44.3507 37.8115 44.1371 37.7413 43.9617 37.61C43.7719 37.4694 43.6223 37.2815 43.5277 37.065L38.2167 28.995L32.9607 37.065C32.8659 37.2816 32.7159 37.4696 32.5257 37.61C32.3497 37.742 32.1357 37.812 31.9177 37.81H24.9027C24.8047 37.8117 24.7089 37.7803 24.6307 37.721C24.5916 37.6912 24.5603 37.6523 24.5394 37.6077C24.5185 37.5632 24.5087 37.5142 24.5107 37.465C24.5082 37.4027 24.5235 37.341 24.5547 37.287ZM55.8857 8.93905C55.879 8.71146 55.9562 8.48934 56.1027 8.31505C56.1842 8.22796 56.2839 8.15989 56.3947 8.11565C56.5055 8.0714 56.6246 8.05208 56.7437 8.05905H63.1407C63.3367 8.06205 63.5307 8.11205 63.7047 8.20405C63.9167 8.31005 64.0947 8.47605 64.2147 8.68305C65.8657 11.421 67.5057 14.118 69.1347 16.774L74.0877 24.866V8.81605C74.136 8.59654 74.2634 8.40252 74.4457 8.27105C74.5956 8.13921 74.7892 8.06791 74.9887 8.07105H80.5597C80.8067 8.06605 81.0487 8.14905 81.2437 8.30405C81.3365 8.38289 81.4095 8.48242 81.4567 8.59463C81.504 8.70685 81.5242 8.82859 81.5157 8.95005V37.032C81.5257 37.1424 81.5092 37.2536 81.4674 37.3562C81.4257 37.4589 81.3599 37.55 81.2757 37.622C81.0902 37.7563 80.8644 37.8229 80.6357 37.811H74.3597C74.1902 37.8143 74.0263 37.7503 73.9037 37.633C73.7539 37.4873 73.6192 37.3269 73.5017 37.154L68.3537 28.439C66.6385 25.5316 64.9192 22.6266 63.1957 19.724V36.932C63.213 37.1673 63.1432 37.4008 62.9997 37.588C62.9035 37.671 62.7913 37.7336 62.6701 37.7719C62.5489 37.8103 62.4212 37.8236 62.2947 37.811H56.7447C56.6235 37.8251 56.5008 37.8091 56.3872 37.7645C56.2737 37.7198 56.1729 37.6479 56.0937 37.555C55.9523 37.3875 55.8785 37.1732 55.8867 36.954L55.8857 8.93905ZM146.317 22.962C146.32 24.3264 146.141 25.685 145.785 27.002C145.442 28.2408 144.934 29.4277 144.275 30.531C142.98 32.7248 141.139 34.5461 138.932 35.818C136.631 37.1113 134.034 37.7862 131.395 37.777H121.763C121.543 37.78 121.327 37.727 121.133 37.621C120.948 37.51 120.861 37.287 120.861 36.931V8.98205C120.858 8.85045 120.881 8.71957 120.93 8.59725C120.978 8.47492 121.051 8.36364 121.144 8.27005C121.227 8.17627 121.332 8.1033 121.449 8.05695C121.565 8.0106 121.692 7.99214 121.817 8.00305H131.45C132.788 8.00005 134.12 8.17605 135.414 8.52605C136.657 8.86322 137.85 9.36073 138.965 10.006C140.062 10.6469 141.076 11.4208 141.984 12.31C142.891 13.2046 143.676 14.2154 144.319 15.316C144.974 16.4406 145.481 17.6453 145.828 18.9C146.176 20.224 146.341 21.591 146.317 22.962ZM128.431 15.227V30.642H130.95L131.808 30.576C132.757 30.5001 133.685 30.251 134.545 29.841C135.357 29.4383 136.092 28.8957 136.717 28.238C137.357 27.5612 137.862 26.7679 138.205 25.901C138.572 24.971 138.756 23.976 138.748 22.973C138.759 21.9422 138.561 20.9198 138.166 19.9676C137.771 19.0154 137.186 18.1532 136.449 17.433C135.74 16.7423 134.901 16.2003 133.98 15.839C133.022 15.4479 131.995 15.2511 130.961 15.26L128.431 15.227ZM151.421 8.98305C151.405 8.74087 151.483 8.50197 151.638 8.31505C151.72 8.22878 151.82 8.16125 151.93 8.11707C152.041 8.07289 152.16 8.0531 152.279 8.05905H171.664C171.786 8.05046 171.909 8.06894 172.024 8.11318C172.138 8.15743 172.242 8.22634 172.327 8.31505C172.494 8.50966 172.579 8.76104 172.566 9.01705V13.97C172.564 14.21 172.479 14.443 172.327 14.626C172.245 14.728 172.139 14.809 172.02 14.862C171.901 14.9141 171.772 14.9364 171.643 14.927H158.98V19.902H168.754C168.973 19.892 169.191 19.954 169.373 20.08C169.458 20.1532 169.525 20.2462 169.567 20.3509C169.608 20.4556 169.624 20.569 169.612 20.681V24.967C169.611 25.1664 169.533 25.3578 169.395 25.501C169.32 25.5919 169.225 25.6635 169.117 25.7099C169.009 25.7564 168.892 25.7763 168.775 25.768H159.002V30.899H172.142C172.263 30.8817 172.386 30.8935 172.501 30.9335C172.617 30.9736 172.721 31.0406 172.805 31.129C172.891 31.2187 172.955 31.3269 172.993 31.4453C173.03 31.5637 173.04 31.6892 173.022 31.812V36.842C173.018 36.9813 172.959 37.1134 172.859 37.21C172.859 37.577 172.544 37.767 172.055 37.767H152.279C152.165 37.7749 152.051 37.7603 151.943 37.7239C151.834 37.6875 151.735 37.6301 151.649 37.555C151.567 37.4699 151.504 37.3682 151.465 37.2568C151.425 37.1454 151.41 37.0268 151.421 36.909V8.98405V8.98305Z" fill="#16192E"/>
<path fill-rule="evenodd" clip-rule="evenodd" d="M111.35 10.7987L100.793 25.8757L96.6257 22.9577C95.9387 22.4777 95.1087 22.8787 95.2607 23.6177L97.4837 34.4257C97.5927 34.9507 98.1637 35.3517 98.6947 35.2737L109.612 33.6657C110.358 33.5557 110.452 32.6387 109.766 32.1577L105.598 29.2397L115.172 15.5677C117.857 20.6967 117.656 27.1087 114.106 32.1777C109.038 39.4177 99.0607 41.1757 91.8227 36.1077C84.5837 31.0387 82.8247 21.0627 87.8927 13.8237C92.9617 6.58568 102.939 4.82668 110.177 9.89468C110.586 10.1807 110.977 10.4827 111.35 10.7987Z" fill="#16192E"/>
<path fill-rule="evenodd" clip-rule="evenodd" d="M105.528 11.5591C105.42 11.0331 104.848 10.6321 104.317 10.7111L93.4004 12.3181C92.6544 12.4281 92.5604 13.3461 93.2474 13.8261L97.4144 16.7441L87.3184 31.1621C88.3777 32.8878 89.7379 34.4096 91.3344 35.6551L102.219 20.1091L106.386 23.0271C107.073 23.5071 107.903 23.1051 107.751 22.3671L105.528 11.5591Z" fill="#2D74FF"/>
</svg>
